<?xml version="1.0" encoding="UTF-8"?>
<svg xmlns="http://www.w3.org/2000/svg" xmlns:xlink="http://www.w3.org/1999/xlink" width="15px" height="15px" viewBox="0 0 15 15" version="1.1">
<g id="surface1">
<path style=" stroke:none;fill-rule:nonzero;fill:rgb(0, 204, 143);fill-opacity:1;" d="M 6.875 8.125 L 6.875 1.875 L 8.125 1.875 L 8.125 8.125 Z M 7.5 13.125 C 6.730469 13.125 6.003906 12.976562 5.320312 12.679688 C 4.636719 12.382812 4.042969 11.980469 3.53125 11.46875 C 3.019531 10.957031 2.617188 10.363281 2.320312 9.679688 C 2.023438 8.996094 1.875 8.269531 1.875 7.5 C 1.875 6.667969 2.046875 5.878906 2.390625 5.140625 C 2.734375 4.402344 3.21875 3.761719 3.84375 3.21875 L 4.75 4.125 C 4.230469 4.519531 3.828125 5.015625 3.546875 5.609375 C 3.265625 6.203125 3.125 6.832031 3.125 7.5 C 3.125 8.707031 3.550781 9.738281 4.40625 10.59375 C 5.261719 11.449219 6.292969 11.875 7.5 11.875 C 8.71875 11.875 9.753906 11.449219 10.601562 10.59375 C 11.449219 9.738281 11.875 8.707031 11.875 7.5 C 11.875 6.832031 11.738281 6.203125 11.460938 5.609375 C 11.183594 5.015625 10.78125 4.519531 10.25 4.125 L 11.15625 3.21875 C 11.78125 3.761719 12.265625 4.402344 12.609375 5.140625 C 12.953125 5.878906 13.125 6.667969 13.125 7.5 C 13.125 8.269531 12.976562 8.996094 12.679688 9.679688 C 12.382812 10.363281 11.980469 10.957031 11.476562 11.46875 C 10.972656 11.980469 10.378906 12.382812 9.695312 12.679688 C 9.011719 12.976562 8.28125 13.125 7.5 13.125 Z M 7.5 13.125 "/>
</g>
</svg>
