<?xml version="1.0" encoding="UTF-8"?>
<svg xmlns="http://www.w3.org/2000/svg" xmlns:xlink="http://www.w3.org/1999/xlink" width="15px" height="15px" viewBox="0 0 15 15" version="1.1">
<g id="surface1">
<path style=" stroke:none;fill-rule:nonzero;fill:rgb(0, 204, 143);fill-opacity:1;" d="M 6.140625 12.9375 C 5.066406 12.636719 4.191406 12.042969 3.515625 11.164062 C 2.839844 10.285156 2.5 9.269531 2.5 8.125 C 2.5 7.53125 2.597656 6.964844 2.796875 6.429688 C 2.996094 5.894531 3.277344 5.402344 3.640625 4.953125 C 3.753906 4.828125 3.894531 4.761719 4.0625 4.757812 C 4.230469 4.753906 4.378906 4.816406 4.515625 4.953125 C 4.628906 5.066406 4.691406 5.207031 4.695312 5.375 C 4.699219 5.542969 4.644531 5.699219 4.53125 5.84375 C 4.28125 6.167969 4.089844 6.519531 3.953125 6.90625 C 3.816406 7.292969 3.75 7.699219 3.75 8.125 C 3.75 8.96875 3.996094 9.722656 4.492188 10.382812 C 4.988281 11.042969 5.625 11.496094 6.40625 11.734375 C 6.542969 11.777344 6.652344 11.855469 6.742188 11.96875 C 6.832031 12.082031 6.875 12.207031 6.875 12.34375 C 6.875 12.550781 6.800781 12.714844 6.65625 12.835938 C 6.511719 12.957031 6.339844 12.988281 6.140625 12.9375 Z M 8.859375 12.9375 C 8.660156 12.988281 8.488281 12.953125 8.34375 12.828125 C 8.199219 12.703125 8.125 12.535156 8.125 12.328125 C 8.125 12.203125 8.167969 12.082031 8.257812 11.96875 C 8.347656 11.855469 8.457031 11.777344 8.59375 11.734375 C 9.375 11.484375 10.011719 11.03125 10.507812 10.375 C 11.003906 9.71875 11.25 8.96875 11.25 8.125 C 11.25 7.082031 10.886719 6.199219 10.15625 5.46875 C 9.425781 4.738281 8.542969 4.375 7.5 4.375 L 7.453125 4.375 L 7.703125 4.625 C 7.816406 4.738281 7.875 4.886719 7.875 5.0625 C 7.875 5.238281 7.816406 5.386719 7.703125 5.5 C 7.589844 5.613281 7.441406 5.671875 7.265625 5.671875 C 7.089844 5.671875 6.941406 5.613281 6.828125 5.5 L 5.515625 4.1875 C 5.453125 4.125 5.410156 4.058594 5.382812 3.984375 C 5.355469 3.910156 5.34375 3.832031 5.34375 3.75 C 5.34375 3.667969 5.355469 3.589844 5.382812 3.515625 C 5.410156 3.441406 5.453125 3.375 5.515625 3.3125 L 6.828125 2 C 6.941406 1.886719 7.089844 1.828125 7.265625 1.828125 C 7.441406 1.828125 7.589844 1.886719 7.703125 2 C 7.816406 2.113281 7.875 2.261719 7.875 2.4375 C 7.875 2.613281 7.816406 2.761719 7.703125 2.875 L 7.453125 3.125 L 7.5 3.125 C 8.894531 3.125 10.078125 3.609375 11.046875 4.578125 C 12.015625 5.546875 12.5 6.730469 12.5 8.125 C 12.5 9.261719 12.160156 10.269531 11.484375 11.15625 C 10.808594 12.042969 9.933594 12.636719 8.859375 12.9375 Z M 8.859375 12.9375 "/>
</g>
</svg>
